<svg preserveAspectRatio="none" xmlns="http://www.w3.org/2000/svg" viewBox="0 0 736.7 68.4" style="enable-background:new 0 0 736.7 68.4" xml:space="preserve">
            <defs>
                <linearGradient id="0" x1="0" y1="0.5" x2="1" y2="0.5">
                  <stop offset="0%" stop-color="#805e43"/>
                  <stop offset="12%" stop-color="#987957"/>
                  <stop offset="24%" stop-color="#b1966d"/>
                  <stop offset="48%" stop-color="#e0d39c"/>
                  <stop offset="61%" stop-color="#d1bf8c"/>
                  <stop offset="74%" stop-color="#c1ab7d"/>
                  <stop offset="100%" stop-color="#a18560"/>
                  <stop offset="100%" stop-color="rgba(173, 125, 81, 0.75)"/>
                  <stop offset="100%" stop-color="rgba(189, 114, 65, 0.5)"/>
                  <stop offset="100%" stop-color="rgba(255, 0, 0, 0)"/>
                </linearGradient>
              </defs>
            <path fill="url(#0)" d="M0 45.3c8.9 1.7 21.6 4 37 6.6C73.7 58.1 103.2 63 140.5 66c27.4 2.1 46.8 3.6 73.5 1.3 10.9-.9 29-2.5 52-8.4 15.1-3.8 16.8-5.6 44.5-14.1 24.7-7.6 37-11.4 49.3-13.7 22.1-4 39.1-3.8 60.8-3.5 23.4.3 41.1 2.3 55.9 4 26 2.9 47.8 6.9 51.1 7.5 18.3 3.3 19.6 4.3 30.8 5.7 4.6.6 22.2 2.6 45.4 1.3 5.7-.3 21.8-1.4 42.3-5.7 7.2-1.5 18.8-4 33.5-9.2 14.6-5.2 25.4-10.7 31.3-13.7 4.4-2.2 10.2-4.3 16.7-9.2 4.1-3.1 7.2-6.1 9.2-8.3H.2L0 45.3z"></path>
        </svg>