<svg preserveAspectRatio="none" xmlns="http://www.w3.org/2000/svg" viewBox="0 0 728.4 77.7" style="enable-background:new 0 0 728.4 77.7" xml:space="preserve">
            <defs>
                <linearGradient id="0" x1="0" y1="0.5" x2="1" y2="0.5">
                  <stop offset="0%" stop-color="#805e43"/>
                  <stop offset="12%" stop-color="#987957"/>
                  <stop offset="24%" stop-color="#b1966d"/>
                  <stop offset="48%" stop-color="#e0d39c"/>
                  <stop offset="61%" stop-color="#d1bf8c"/>
                  <stop offset="74%" stop-color="#c1ab7d"/>
                  <stop offset="100%" stop-color="#a18560"/>
                  <stop offset="100%" stop-color="rgba(173, 125, 81, 0.75)"/>
                  <stop offset="100%" stop-color="rgba(189, 114, 65, 0.5)"/>
                  <stop offset="100%" stop-color="rgba(255, 0, 0, 0)"/>
                </linearGradient>
              </defs>   
            <path fill="url(#0)" d="M0 37.5c8.1-4.6 15.1-7.9 20.3-10.1 10.3-4.4 18.5-6.8 28.2-9.7 5-1.5 11.3-3.3 19.8-5.3C74.4 11 85 8.6 99.1 7.1c11.2-1.2 19.7-1.3 24.7-1.3 13.8-.1 24.5.8 29.5 1.3 10.6 1.1 18.6 2.5 21.6 3.1 5.3 1 5.9 1.3 23.3 5.3 10.1 2.3 15.2 3.5 19.8 4.4 6.2 1.2 10.8 2 19.8 3.5 6.1 1 13.1 2.2 22.5 3.5 8.1 1.2 14.4 1.9 16.7 2.2 6 .7 15 1.8 26 2.6 10 .8 16.9 1.3 26 1.3 17.2 0 30.6-1.9 35.7-2.6 10.3-1.6 17.4-3.4 31.3-7 14.4-3.7 15.1-4.5 32.6-9.2 11-3 19.2-5.2 30.4-7.5 7.5-1.5 16.6-3.4 28.6-4.8 16.4-2 29.2-2 39.5-1.9 13.7.1 24.2 1 34.3 1.8 11 .9 19.2 1.8 26.4 2.6 8 .9 21.6 2.6 38.8 5.3 18.4 2.9 31.8 5.5 46.2 8.4 14.8 2.9 33.6 6.8 55.5 11.9v47.7H0V37.5z"></path>
        </svg>